<svg width="400" height="72" viewBox="0 0 400 72" fill="none" xmlns="http://www.w3.org/2000/svg">
<g clip-path="url(#clip0_29_1074)">
<path fill-rule="evenodd" clip-rule="evenodd" d="M30.9621 15.248L45.3644 6.38377C45.9373 6.03119 46.6618 6.03119 47.2347 6.38377L91.7518 33.7806C92.4342 34.1989 92.7543 35.0174 92.5352 35.7853C92.3162 36.5532 91.617 37.0832 90.8208 37.0832H75.4791V69.5454C75.4791 70.5303 74.6829 71.329 73.6972 71.329H18.9019C17.9162 71.329 17.12 70.5303 17.12 69.5454V37.0832H1.78256C0.982201 37.0832 0.282956 36.5532 0.0639092 35.7853C-0.155137 35.0174 0.165001 34.1989 0.847416 33.7806L17.12 23.7655V8.11002C17.12 7.49037 17.4402 6.91538 17.9668 6.5906L28.2409 0.26858C28.7927 -0.0700994 29.4835 -0.0848414 30.048 0.23067C30.6124 0.54576 30.9621 1.14139 30.9621 1.78758V15.248Z" fill="#45BE7F"/>
<path d="M46.309 49.7019C53.4878 49.7019 59.3074 43.8823 59.3074 36.7035C59.3074 29.5246 53.4878 23.7051 46.309 23.7051C39.1301 23.7051 33.3105 29.5246 33.3105 36.7035C33.3105 43.8823 39.1301 49.7019 46.309 49.7019Z" fill="white"/>
<path fill-rule="evenodd" clip-rule="evenodd" d="M54.5863 53.876C55.3636 53.2331 56.515 53.3435 57.1579 54.1207C57.8008 54.898 57.6904 56.0495 56.9132 56.6924C54.0297 59.0769 50.3306 60.5115 46.3005 60.5115C42.2703 60.5115 38.5711 59.0769 35.6876 56.6924C34.9104 56.0495 34.8 54.898 35.4429 54.1207C36.0858 53.3435 37.2374 53.2331 38.0146 53.876C40.2648 55.7376 43.1531 56.8556 46.3005 56.8556C49.4478 56.8556 52.3313 55.7376 54.5863 53.876Z" fill="#070A0C"/>
<path d="M145.535 46.7492V65.95C147.679 66.5474 149.372 66.8709 150.62 66.9211C150.67 67.17 150.692 67.5809 150.692 68.1533C150.692 68.7263 150.57 69.4608 150.319 70.3573H131.936C131.893 70.0087 131.864 69.5232 131.864 68.9006C131.864 68.2781 131.986 67.6183 132.237 66.9211C133.729 66.6715 134.777 66.2734 135.379 65.7255C135.974 65.1775 136.276 64.2064 136.276 62.8121V47.7948C136.276 45.6532 135.788 44.0466 134.82 42.9758C133.844 41.905 132.51 41.37 130.817 41.37C127.382 41.37 124.764 43.6859 122.971 48.3177V65.95C124.219 66.4972 125.711 66.8214 127.454 66.9211V67.9668C127.454 68.4645 127.382 69.2621 127.231 70.3573H108.626C108.583 70.0087 108.555 69.5232 108.555 68.9006C108.555 68.2781 108.677 67.6183 108.928 66.9211C110.57 66.6715 111.782 66.2612 112.55 65.6882C113.324 65.1151 113.711 64.1569 113.711 62.8121V23.0656C112.915 22.9659 112.076 22.9165 111.209 22.9165C110.334 22.9165 109.48 22.9409 108.626 22.9911C108.727 21.4469 108.906 20.3258 109.15 19.6287C113.539 18.0845 118.144 17.1636 122.971 16.8645V42.2665C125.517 37.5343 129.376 35.1688 134.554 35.1688C137.789 35.1688 140.435 36.1773 142.472 38.1948C144.516 40.2116 145.535 43.0633 145.535 46.7492Z" fill="#4D3306"/>
<path d="M176.541 54.4444C176.541 44.4333 173.83 39.4271 168.401 39.4271C163.366 39.4271 160.856 43.6358 160.856 52.0539V53.2488C161.25 62.3138 164.018 66.8467 169.147 66.8467C174.074 66.8467 176.541 62.7125 176.541 54.4444ZM168.81 35.1689C174.067 35.1689 178.313 36.7375 181.547 39.8754C184.789 43.0132 186.403 47.4464 186.403 53.1742C186.403 58.9019 184.761 63.3473 181.476 66.5103C178.184 69.6725 173.902 71.254 168.623 71.254C163.344 71.254 159.099 69.6854 155.885 66.5475C152.672 63.4097 151.065 58.9765 151.065 53.2488C151.065 47.521 152.708 43.0756 156 39.9127C159.285 36.7504 163.552 35.1689 168.81 35.1689Z" fill="#4D3306"/>
<path d="M222.041 42.8639V64.4553C223.634 64.7041 225.133 64.8289 226.524 64.8289C226.675 65.4264 226.746 65.9995 226.746 66.5474C226.746 67.0954 226.725 67.568 226.675 67.9668C222.938 69.6602 218.656 70.5818 213.822 70.731C213.377 68.4402 213.076 66.1486 212.925 63.8578C210.236 68.7887 206.348 71.2538 201.27 71.2538C198.036 71.2538 195.396 70.2203 193.352 68.1533C191.308 66.0862 190.29 63.2102 190.29 59.5243V41.5191C189.544 41.4696 188.784 41.4445 188.009 41.4445H185.958C186.058 39.9506 186.231 38.8547 186.482 38.1575C190.864 36.5136 195.196 35.5669 199.477 35.318V58.4786C199.477 60.5708 199.987 62.1767 201.012 63.2977C202.031 64.418 203.365 64.9781 205.007 64.9781C208.342 64.9781 210.96 62.5876 212.854 57.8059V44.7316C212.854 41.7436 211.807 39.8007 209.712 38.9041C209.913 37.9581 210.164 37.261 210.458 36.8127C213.198 35.7663 216.139 35.2434 219.273 35.2434C220.27 35.2434 221.296 35.2929 222.343 35.3926C222.142 37.1857 222.041 39.6766 222.041 42.8639Z" fill="#4D3306"/>
<path d="M239.893 66.9958C241.744 66.9958 243.207 66.5726 244.304 65.7256C245.401 64.8786 245.946 63.8328 245.946 62.5877C245.946 61.3426 245.401 60.2346 244.304 59.2634C243.207 58.2916 241.887 57.408 240.345 56.6111C238.803 55.8143 237.261 54.9672 235.712 54.0707C234.17 53.1742 232.85 51.9915 231.753 50.5219C230.655 49.0523 230.11 47.3468 230.11 45.4045C230.11 42.0171 231.315 39.4644 233.732 37.7467C236.149 36.0282 239.097 35.1689 242.583 35.1689C246.076 35.1689 249.382 35.6918 252.523 36.7375V39.9127C252.523 41.4318 252.373 43.4615 252.072 46.0019C250.781 46.0019 249.812 45.9022 249.16 45.7028C249.21 45.1549 249.239 44.6571 249.239 44.2089C249.239 40.8221 247.395 39.1288 243.709 39.1288C242.21 39.1288 240.983 39.5268 240.008 40.3237C239.04 41.1205 238.552 42.1669 238.552 43.4615C238.552 44.7568 239.112 45.865 240.23 46.7866C241.356 47.7075 242.726 48.5294 244.34 49.2517C245.961 49.9739 247.582 50.7708 249.196 51.6429C250.817 52.5144 252.187 53.6971 253.305 55.1918C254.431 56.6857 254.991 58.4286 254.991 60.421C254.991 63.6586 253.592 66.2858 250.802 68.3034C248.019 70.3202 244.555 71.3293 240.417 71.3293C236.285 71.3293 232.577 70.8308 229.285 69.8346C229.192 68.6892 229.135 67.282 229.135 65.6138C229.135 63.9448 229.314 62.0147 229.658 59.8236C229.759 59.8236 230.784 59.8982 232.721 60.0473V61.5794C232.721 62.3016 232.915 63.1106 233.288 64.0071C233.66 64.9037 234.27 65.5514 235.116 65.9501C236.458 66.6473 238.057 66.9958 239.893 66.9958Z" fill="#4D3306"/>
<path d="M273.144 39.7262C271.501 39.7262 269.995 40.4484 268.625 41.8929C267.256 43.3374 266.345 45.6031 265.893 48.6915L272.843 48.1686L278.15 48.0195C277.999 42.4904 276.328 39.7262 273.144 39.7262ZM265.599 52.0539V52.8005C265.599 61.2681 268.812 65.5019 275.238 65.5019C278.624 65.5019 282.181 64.6053 285.918 62.8123L287.187 64.9783C283.106 69.212 278.222 71.3293 272.549 71.3293C269.96 71.3293 267.428 70.7441 264.961 69.5736C262.5 68.403 260.356 66.4479 258.541 63.7088C256.72 60.969 255.809 57.7314 255.809 53.9961C255.809 48.2181 257.616 43.6358 261.231 40.2491C264.838 36.8623 269.084 35.1689 273.962 35.1689C277.749 35.1689 280.955 36.3395 283.565 38.6805C286.183 41.0215 287.488 44.6822 287.488 49.6626C287.187 50.5592 286.793 51.356 286.291 52.0539H265.599Z" fill="#4D3306"/>
<path d="M362.797 46.7493V65.9501C364.891 66.5476 366.555 66.871 367.803 66.9213C367.853 67.1701 367.875 67.5811 367.875 68.1534C367.875 68.7265 367.753 69.4609 367.502 70.3574H349.198C349.148 70.0089 349.127 69.5606 349.127 69.0126C349.127 68.4647 349.227 67.7676 349.42 66.9213C350.919 66.6717 351.974 66.2736 352.598 65.7256C353.222 65.1776 353.53 64.2066 353.53 62.8123V47.795C353.53 45.6533 353.05 44.0468 352.074 42.9759C351.106 41.9051 349.772 41.3701 348.079 41.3701C344.593 41.3701 341.954 43.7606 340.161 48.5424V65.9501C341.402 66.4974 342.922 66.8216 344.715 66.9213V68.1534C344.715 68.7265 344.615 69.4609 344.414 70.3574H326.562C326.512 70.0089 326.484 69.5233 326.484 68.9008C326.484 68.2782 326.613 67.6184 326.857 66.9213C328.356 66.6717 329.403 66.2736 329.998 65.7256C330.593 65.1776 330.895 64.2066 330.895 62.8123V47.795C330.895 45.6533 330.407 44.0468 329.439 42.9759C328.47 41.9051 327.137 41.3701 325.444 41.3701C322.001 41.3701 319.39 43.686 317.597 48.3178V65.9501C318.845 66.4974 320.337 66.8216 322.08 66.9213V67.9669C322.08 68.4647 322.001 69.2622 321.858 70.3574H303.253C303.202 70.0089 303.174 69.5233 303.174 68.9008C303.174 68.2782 303.303 67.6184 303.547 66.9213C305.196 66.6717 306.401 66.2614 307.176 65.6883C307.943 65.1152 308.331 64.1571 308.331 62.8123V41.8184C307.535 41.7187 306.703 41.6684 305.828 41.6684C304.96 41.6684 304.099 41.6936 303.253 41.7438C303.353 40.2491 303.525 39.1531 303.776 38.456C307.907 36.962 312.218 35.9909 316.701 35.5427C317.095 37.5846 317.375 39.9005 317.518 42.4904C320.014 37.6097 323.894 35.1689 329.173 35.1689C331.82 35.1689 334.072 35.8539 335.937 37.2231C337.809 38.593 339.064 40.5482 339.709 43.0886C340.907 40.498 342.564 38.5306 344.68 37.1858C346.796 35.841 349.327 35.1689 352.261 35.1689C355.201 35.1689 357.69 36.1774 359.734 38.195C361.778 40.2118 362.797 43.0635 362.797 46.7493Z" fill="#4D3306"/>
<path d="M385.655 39.7262C384.013 39.7262 382.507 40.4484 381.137 41.8929C379.767 43.3374 378.856 45.6031 378.411 48.6915L385.361 48.1686L390.662 48.0195C390.511 42.4904 388.847 39.7262 385.655 39.7262ZM378.11 52.0539V52.8005C378.11 61.2681 381.323 65.5019 387.75 65.5019C391.135 65.5019 394.7 64.6053 398.437 62.8123L399.706 64.9783C395.618 69.212 390.74 71.3293 385.06 71.3293C382.471 71.3293 379.946 70.7441 377.479 69.5736C375.012 68.403 372.875 66.4479 371.053 63.7088C369.238 60.969 368.327 57.7314 368.327 53.9961C368.327 48.2181 370.135 43.6358 373.742 40.2491C377.357 36.8623 381.603 35.1689 386.48 35.1689C390.267 35.1689 393.466 36.3395 396.084 38.6805C398.695 41.0215 400 44.6822 400 49.6626C399.706 50.5592 399.304 51.356 398.809 52.0539H378.11Z" fill="#4D3306"/>
</g>
<defs>
<clipPath id="clip0_29_1074">
<rect width="400" height="71.4754" fill="white"/>
</clipPath>
</defs>
</svg>
