<svg width="100" height="100" viewBox="0 0 100 100" fill="none" xmlns="http://www.w3.org/2000/svg">
<path d="M50 100C77.6142 100 100 77.6142 100 50C100 22.3858 77.6142 0 50 0C22.3858 0 0 22.3858 0 50C0 77.6142 22.3858 100 50 100Z" fill="#1E4FAD"/>
<path fill-rule="evenodd" clip-rule="evenodd" d="M56.4321 31.4321C58.2525 31.3916 60.0729 31.4321 61.8933 31.4321C62.0955 31.4321 62.3382 31.4321 62.6619 31.4321V21.9661C61.691 21.8852 60.6797 21.7234 59.6683 21.6829C57.8075 21.602 55.9467 21.5211 54.0858 21.5615C51.2541 21.602 48.5437 22.3302 46.1975 23.9887C43.4871 25.9305 42.0308 28.6813 41.4645 31.8771C41.2217 33.212 41.1813 34.5874 41.1408 35.9224C41.1004 38.0259 41.1408 40.17 41.1408 42.2735V43.0826H32.0793V53.6408H41.0599V80.2185H52.0632V53.6813H61.0437C61.4887 50.1619 61.9337 46.6829 62.4191 43.0826C61.691 43.0826 61.0437 43.0826 60.3965 43.0826C57.848 43.0826 51.9823 43.0826 51.9823 43.0826C51.9823 43.0826 52.0227 37.8641 52.0632 35.5583C52.0632 32.4839 53.924 31.513 56.4321 31.4321Z" fill="white"/>
</svg>
