<svg width="100" height="100" viewBox="0 0 100 100" fill="none" xmlns="http://www.w3.org/2000/svg">
<path d="M50 100C77.6142 100 100 77.6142 100 50C100 22.3858 77.6142 0 50 0C22.3858 0 0 22.3858 0 50C0 77.6142 22.3858 100 50 100Z" fill="url(#paint0_linear_40_1205)"/>
<path d="M76.5777 36.8934C76.2136 33.4144 74.8787 30.34 72.2897 27.8723C69.5794 25.2833 66.2217 24.1102 62.581 23.9484C56.3512 23.6248 41.5858 23.382 36.3674 24.2315C30.4208 25.2024 26.5373 28.6409 24.9192 34.5066C23.6651 38.9969 23.9078 59.7898 24.636 64.2396C25.6473 70.3481 29.2476 74.2315 35.2751 75.8092C39.4418 76.9014 59.992 76.7396 64.6036 76.0115C70.712 75.0406 74.636 71.4403 76.2137 65.4128C77.4273 60.7607 76.9823 41.1005 76.5777 36.8934ZM71.6829 63.3901C70.9548 68.0018 67.9208 70.8739 63.2687 71.3998C58.9806 71.8853 39.9272 72.128 35.9628 71.0358C32.1603 69.984 30.0162 67.3545 29.369 63.5519C28.7622 59.9112 28.6004 41.7073 29.369 36.8125C30.0567 32.2413 33.1311 29.3691 37.7428 28.8432C42.4353 28.3173 59.3043 28.2769 63.835 28.9646C68.4467 29.6927 71.3188 32.7671 71.8043 37.4192C72.2897 41.7073 72.4111 58.6976 71.6829 63.3901ZM50.526 36.5293C43.0422 36.5293 36.9337 42.5972 36.9337 50.1215C36.9337 57.6053 43.0017 63.7137 50.526 63.7137C58.0098 63.7137 64.1182 57.6458 64.1182 50.1215C64.1182 42.5972 58.0098 36.5293 50.526 36.5293ZM50.445 58.8998C45.5907 58.8594 41.7072 54.895 41.7476 50.0406C41.7881 45.1862 45.7525 41.3027 50.6069 41.3432C55.4612 41.3837 59.3447 45.348 59.3043 50.2024C59.2638 55.0163 55.2994 58.9403 50.445 58.8998ZM67.7994 36.0034C67.7994 37.7429 66.3836 39.1992 64.6036 39.1587C62.8641 39.1587 61.4078 37.7429 61.4483 35.9629C61.4483 34.2235 62.8641 32.7671 64.6441 32.8076C66.3836 32.8481 67.8399 34.2639 67.7994 36.0034Z" fill="white"/>
<path d="M76.5777 36.8934C76.2136 33.4144 74.8787 30.34 72.2897 27.8723C69.5794 25.2833 66.2217 24.1102 62.581 23.9484C56.3512 23.6248 41.5858 23.382 36.3674 24.2315C30.4208 25.2024 26.5373 28.6409 24.9192 34.5066C23.6651 38.9969 23.9078 59.7898 24.636 64.2396C25.6473 70.3481 29.2476 74.2315 35.2751 75.8092C39.4418 76.9014 59.992 76.7396 64.6036 76.0115C70.712 75.0406 74.636 71.4403 76.2137 65.4128C77.4273 60.7607 76.9823 41.1005 76.5777 36.8934ZM71.6829 63.3901C70.9548 68.0018 67.9208 70.8739 63.2687 71.3998C58.9806 71.8853 39.9272 72.128 35.9628 71.0358C32.1603 69.984 30.0162 67.3545 29.369 63.5519C28.7622 59.9112 28.6004 41.7073 29.369 36.8125C30.0567 32.2413 33.1311 29.3691 37.7428 28.8432C42.4353 28.3173 59.3043 28.2769 63.835 28.9646C68.4467 29.6927 71.3188 32.7671 71.8043 37.4192C72.2897 41.7073 72.4111 58.6976 71.6829 63.3901ZM50.526 36.5293C43.0422 36.5293 36.9337 42.5972 36.9337 50.1215C36.9337 57.6053 43.0017 63.7137 50.526 63.7137C58.0098 63.7137 64.1182 57.6458 64.1182 50.1215C64.1182 42.5972 58.0098 36.5293 50.526 36.5293ZM50.445 58.8998C45.5907 58.8594 41.7072 54.895 41.7476 50.0406C41.7881 45.1862 45.7525 41.3027 50.6069 41.3432C55.4612 41.3837 59.3447 45.348 59.3043 50.2024C59.2638 55.0163 55.2994 58.9403 50.445 58.8998ZM67.7994 36.0034C67.7994 37.7429 66.3836 39.1992 64.6036 39.1587C62.8641 39.1587 61.4078 37.7429 61.4483 35.9629C61.4483 34.2235 62.8641 32.7671 64.6441 32.8076C66.3836 32.8481 67.8399 34.2639 67.7994 36.0034Z" fill="white"/>
<defs>
<linearGradient id="paint0_linear_40_1205" x1="98.769" y1="-10.0781" x2="18.7007" y2="88.5489" gradientUnits="userSpaceOnUse">
<stop offset="0.0108" stop-color="#3542E0"/>
<stop offset="0.1748" stop-color="#3841DF"/>
<stop offset="0.2744" stop-color="#403FDA"/>
<stop offset="0.357" stop-color="#4E3CD2"/>
<stop offset="0.4301" stop-color="#6337C7"/>
<stop offset="0.4971" stop-color="#7D31B9"/>
<stop offset="0.5595" stop-color="#9E2AA8"/>
<stop offset="0.6173" stop-color="#C32193"/>
<stop offset="0.6236" stop-color="#C82091"/>
<stop offset="0.7612" stop-color="#F62B37"/>
<stop offset="1" stop-color="#FFC658"/>
</linearGradient>
</defs>
</svg>
