<svg width="100" height="100" viewBox="0 0 100 100" fill="none" xmlns="http://www.w3.org/2000/svg">
<path d="M50 100C77.6142 100 100 77.6142 100 50C100 22.3858 77.6142 0 50 0C22.3858 0 0 22.3858 0 50C0 77.6142 22.3858 100 50 100Z" fill="#007AB5"/>
<path d="M28.6006 39.563H38.7543V72.1682H28.6006V39.563ZM33.6977 23.3413C36.9339 23.3413 39.5634 25.9708 39.5634 29.207C39.5634 32.4433 36.9339 35.0727 33.6977 35.0727C30.4614 35.0727 27.832 32.4433 27.832 29.207C27.7916 25.9708 30.421 23.3413 33.6977 23.3413Z" fill="white"/>
<path d="M45.105 39.563H54.8137V44.0128H54.935C56.3105 41.4643 59.5872 38.7539 64.5225 38.7539C74.7976 38.7539 76.6584 45.5096 76.6584 54.2879V72.1682H66.5451V56.3105C66.5451 52.508 66.4642 47.6536 61.2862 47.6536C56.0273 47.6536 55.2182 51.7798 55.2182 56.0274V72.1682H45.105V39.563Z" fill="white"/>
</svg>
