<svg width="100" height="100" viewBox="0 0 100 100" fill="none" xmlns="http://www.w3.org/2000/svg">
<path d="M50 100C77.6142 100 100 77.6142 100 50C100 22.3858 77.6142 0 50 0C22.3858 0 0 22.3858 0 50C0 77.6142 22.3858 100 50 100Z" fill="#45BE7F"/>
<path fill-rule="evenodd" clip-rule="evenodd" d="M23.5842 76.537C23.9079 75.3234 24.1505 74.3121 24.4337 73.2603C25.3641 69.9432 26.2946 66.626 27.1441 63.2684C27.2655 62.783 27.225 62.0953 26.9823 61.6503C18.5276 45.55 27.2654 26.0516 44.9839 21.8849C61.0842 18.1228 75.5664 28.9642 78.1959 43.4869C80.9467 58.6568 71.0357 73.0581 55.9871 75.6875C50.0001 76.7393 44.2962 75.8493 38.8351 73.1794C38.3496 72.9367 37.6619 72.8558 37.136 72.9771C29.8949 74.8784 25.0405 76.2538 23.5842 76.537ZM29.9758 70.2263C32.7266 69.4982 35.2347 68.8914 37.7428 68.1632C38.4305 67.961 38.9968 68.0823 39.6036 68.4464C44.3366 71.1568 49.3933 72.1681 54.814 71.3186C67.2736 69.3364 75.8092 57.6454 73.9079 45.2263C71.9257 32.3623 59.8706 23.7053 47.1279 26.0516C31.7153 28.8833 23.5033 46.0759 31.1894 59.7085C32.0389 61.2053 32.2816 62.4594 31.7153 64.0775C30.9871 66.0192 30.5826 68.0419 29.9758 70.2263Z" fill="white"/>
<path fill-rule="evenodd" clip-rule="evenodd" d="M58.3738 61.8124C53.034 61.6101 44.458 57.403 38.6327 47.2493C36.5696 43.649 36.8528 39.5227 39.8867 36.691C40.8981 35.7202 42.1926 35.9629 43.4061 36.1651C43.6893 36.2056 44.013 36.6506 44.1748 37.0147C44.9434 38.7946 45.712 40.5745 46.3997 42.3949C46.7638 43.3658 46.1165 44.2558 44.7007 45.8334C44.2557 46.3189 44.1748 46.8043 44.4984 47.4111C46.7638 51.2137 49.8787 53.9645 54.0453 55.5826C54.6521 55.8253 55.0971 55.6635 55.5016 55.1781C57.6861 52.5082 57.9288 51.7396 59.0615 52.2655C64.6036 54.9354 65.0486 55.0163 65.0486 55.6635C65.2508 60.3156 60.9628 62.0147 58.3738 61.8124Z" fill="white"/>
</svg>
