<svg width="100" height="100" viewBox="0 0 100 100" fill="none" xmlns="http://www.w3.org/2000/svg">
<path d="M50 100C22.3861 100 0 77.6139 0 50C0 22.3861 22.3861 0 50 0C77.6139 0 100 22.3861 100 50C100 77.6139 77.6139 100 50 100Z" fill="#070A0C"/>
<path d="M72.4518 71.3561L54.8821 45.8313L52.8951 42.9446L40.3265 24.685L39.2854 23.1724H23.8413L27.6082 28.6465L44.3187 52.9272L46.3057 55.8112L59.7335 75.3203L60.7746 76.8315H76.2187L72.4518 71.3561ZM62.609 73.3361L48.6594 53.0685L46.6724 50.1832L30.4852 26.665H37.4482L50.5386 45.6844L52.5257 48.5698L69.572 73.3361H62.609Z" fill="white"/>
<path d="M46.6739 50.1831L48.6595 53.0685L46.3059 55.8083L28.2367 76.8287H23.7812L44.3189 52.9243L46.6739 50.1831Z" fill="white"/>
<path d="M74.3576 23.1709L54.8807 45.8299L52.5271 48.5697L50.54 45.6843L52.8951 42.9431L66.0891 27.5871L69.9022 23.1709H74.3576Z" fill="white"/>
</svg>
