<svg width="100" height="100" viewBox="0 0 100 100" fill="none" xmlns="http://www.w3.org/2000/svg">
<path d="M50 100C77.6143 100 100 77.6143 100 50C100 22.3857 77.6143 0 50 0C22.3857 0 0 22.3857 0 50C0 77.6143 22.3857 100 50 100Z" fill="white"/>
<path fill-rule="evenodd" clip-rule="evenodd" d="M63.4798 74.4026C53.474 74.0236 37.4039 66.1402 26.4885 47.1139C22.6226 40.3675 23.1532 32.6358 28.8383 27.3296C30.7334 25.5104 33.159 25.9652 35.433 26.3442C35.9637 26.42 36.5701 27.2538 36.8733 27.9361C38.3135 31.2713 39.7538 34.6066 41.0424 38.0177C41.7246 39.8369 40.5118 41.5046 37.8588 44.4608C37.0249 45.3705 36.8733 46.2801 37.4797 47.4171C41.7246 54.5425 47.5614 59.697 55.369 62.7291C56.506 63.1839 57.3398 62.8807 58.0978 61.9711C62.1911 56.9681 62.646 55.5279 64.7684 56.5133C75.1533 61.5162 75.9871 61.6679 75.9871 62.8807C76.3661 71.5979 68.3311 74.7816 63.4798 74.4026Z" fill="#45BE7F"/>
</svg>
